<svg width="16" height="16" viewBox="0 0 16 16" fill="none" xmlns="http://www.w3.org/2000/svg">
<g id="placeholder (1) 1" clip-path="url(#clip0_11_2694)">
<g id="Group">
<g id="Group_2">
<path id="Vector" d="M8.00012 3.5C6.24237 3.5 5.19287 4.59875 5.19287 6.439C5.19287 7.48625 6.58437 9.90575 7.99962 11.8375C9.40637 9.89925 10.8074 7.50975 10.8074 6.439C10.8074 4.59875 9.75787 3.5 8.00012 3.5ZM7.99712 7.69825C7.31612 7.69825 6.76412 7.14625 6.76412 6.46525C6.76412 5.78425 7.31612 5.23225 7.99712 5.23225C8.67812 5.23225 9.23012 5.78425 9.23012 6.46525C9.23012 7.14625 8.67812 7.69825 7.99712 7.69825Z" fill="#082E54"/>
</g>
</g>
<g id="Group_3">
<g id="Group_4">
<path id="Vector_2" d="M8 0C3.58175 0 0 3.58175 0 8C0 12.4183 3.58175 16 8 16C12.4183 16 16 12.4183 16 8C16 3.58175 12.4183 0 8 0ZM8.4685 12.885L8 13.5L7.53425 12.885C7.1915 12.437 4.19275 8.4335 4.19275 6.439C4.19275 4.04625 5.68625 2.5 8 2.5C10.3138 2.5 11.8073 4.04625 11.8073 6.439C11.8073 8.4305 8.80825 12.434 8.4685 12.885Z" fill="#082E54"/>
</g>
</g>
</g>
<defs>
<clipPath id="clip0_11_2694">
<rect width="16" height="16" fill="white"/>
</clipPath>
</defs>
</svg>
