<svg width="16" height="16" viewBox="0 0 16 16" fill="none" xmlns="http://www.w3.org/2000/svg">
<g id="map 1" clip-path="url(#clip0_11_2671)">
<g id="Group">
<g id="Group_2">
<path id="Vector" d="M13.7396 15.059L7.44661 11.727C7.28261 11.64 7.08261 11.652 6.92761 11.757L2.11561 15.089C1.93561 15.214 1.85761 15.441 1.92361 15.65C1.98761 15.857 2.18161 16 2.39961 16H13.5046C13.7336 16 13.9346 15.844 13.9896 15.62C14.0456 15.397 13.9416 15.166 13.7396 15.059Z" fill="#082E54"/>
</g>
</g>
<g id="Group_3">
<g id="Group_4">
<path id="Vector_2" d="M15.8454 14.109L14.3654 7.44602C14.3294 7.28302 14.2144 7.15002 14.0594 7.08902C13.9034 7.02802 13.7284 7.04902 13.5924 7.14302L8.77945 10.475C8.63545 10.575 8.55445 10.742 8.56545 10.915C8.57545 11.09 8.67645 11.246 8.83045 11.327L15.1224 14.659C15.1964 14.698 15.2764 14.718 15.3564 14.718C15.4634 14.718 15.5704 14.684 15.6594 14.615C15.8144 14.497 15.8874 14.3 15.8454 14.109Z" fill="#082E54"/>
</g>
</g>
<g id="Group_5">
<g id="Group_6">
<path id="Vector_3" d="M12.3636 6.351C12.2976 6.142 12.1046 6 11.8856 6H7.32156C6.49156 7.503 5.26356 8.94 4.75856 9.502C4.47456 9.818 4.06756 10 3.64256 10C3.21756 10 2.81056 9.818 2.52656 9.502C2.33156 9.285 2.02956 8.938 1.68356 8.508L0.473564 13.954C0.429564 14.155 0.512564 14.362 0.682564 14.477C0.766564 14.534 0.864564 14.562 0.961564 14.562C1.06156 14.562 1.16056 14.533 1.24656 14.473L12.1696 6.91C12.3506 6.787 12.4276 6.56 12.3636 6.351Z" fill="#082E54"/>
</g>
</g>
<g id="Group_7">
<g id="Group_8">
<path id="Vector_4" d="M3.64258 0C1.71258 0 0.142578 1.57 0.142578 3.5C0.142578 5.296 2.95058 8.477 3.27058 8.834C3.36558 8.939 3.50058 9 3.64258 9C3.78458 9 3.91958 8.939 4.01458 8.834C4.33458 8.477 7.14258 5.296 7.14258 3.5C7.14258 1.57 5.57258 0 3.64258 0ZM3.64258 5C2.81458 5 2.14258 4.328 2.14258 3.5C2.14258 2.672 2.81458 2 3.64258 2C4.47058 2 5.14258 2.672 5.14258 3.5C5.14258 4.328 4.47058 5 3.64258 5Z" fill="#082E54"/>
</g>
</g>
</g>
<defs>
<clipPath id="clip0_11_2671">
<rect width="16" height="16" fill="white"/>
</clipPath>
</defs>
</svg>
